<svg width="615" height="89" viewBox="0 0 615 89" fill="none" xmlns="http://www.w3.org/2000/svg">
<path d="M83.26 53.61C83.26 74.8 69.36 88.12 49.26 88.12C37.57 88.12 28.54 83.49 22.86 76.31V85.67H0V1.83105e-06H22.81V30.92C28.49 23.75 37.52 19.22 49.21 19.22C69.36 19.22 83.26 32.42 83.26 53.61ZM61.61 53.61C61.61 42.96 54.89 36.71 42.85 36.71C35.09 36.71 28.03 39.26 22.93 45.86V61.37C28.03 67.97 35.09 70.52 42.85 70.52C54.89 70.51 61.6 64.37 61.6 53.61H61.61Z" fill="#F6535F"/>
<path d="M3.05176e-07 85.67V1.83105e-06H22.92V85.67H3.05176e-07Z" transform="translate(95.9301)" fill="#F6535F"/>
<path d="M4.88281e-06 34.62C4.88281e-06 13.09 16.21 7.32422e-06 42 7.32422e-06C67.79 7.32422e-06 83.92 13.09 83.92 34.62C83.92 56.15 67.71 69.35 42 69.35C16.29 69.35 4.88281e-06 56.04 4.88281e-06 34.62ZM62.18 34.62C62.18 23.28 53.73 17.48 42.03 17.48C30.33 17.48 21.88 23.28 21.88 34.62C21.88 45.96 30.33 51.76 42.03 51.76C53.73 51.76 62.18 45.85 62.18 34.62Z" transform="translate(131.38 18.99)" fill="#F6535F"/>
<path d="M77.57 46.7C77.57 59.32 65.57 69.51 40.52 69.51C23.38 69.51 9.02 64.31 -3.66211e-06 57.59L10 45.19C16.95 50.29 27.72 54 41.26 54C50.26 54 56.31 52.6 56.31 48.79C56.31 44.98 50.87 43.7 38.94 43C20.41 41.73 2.58 36.64 2.58 22C2.58 8.91 15.9 3.66211e-06 39.75 3.66211e-06C53.65 3.66211e-06 66.39 3.71001 74.84 8.80001L65.11 21.8C58.62 17.86 49.94 15.43 39.17 15.43C32.1 15.43 23.88 16.43 23.88 20.43C23.88 24.43 30.72 24.95 41.6 25.53C61.94 26.67 77.57 32.58 77.57 46.7Z" transform="translate(222.34 18.83)" fill="#F6535F"/>
<path d="M77.58 46.7C77.58 59.32 65.58 69.51 40.53 69.51C23.39 69.51 9.02999 64.31 -1.46484e-05 57.59L9.99999 45.19C16.95 50.29 27.72 54 41.26 54C50.26 54 56.31 52.6 56.31 48.79C56.31 44.98 50.87 43.7 38.94 43C20.41 41.73 2.58 36.64 2.58 22C2.58 8.91 15.9 3.66211e-06 39.75 3.66211e-06C53.65 3.66211e-06 66.39 3.71001 74.84 8.80001L65.11 21.8C58.62 17.86 49.94 15.43 39.17 15.43C32.1 15.43 23.88 16.43 23.88 20.43C23.88 24.43 30.72 24.95 41.6 25.53C61.95 26.67 77.58 32.58 77.58 46.7Z" transform="translate(305.86 18.83)" fill="#F6535F"/>
<path d="M0 34.62C0 13.09 16.21 7.32422e-06 42 7.32422e-06C67.79 7.32422e-06 84 13.08 84 34.62C84 56.16 67.75 69.35 42 69.35C16.25 69.35 0 56.04 0 34.62ZM62.18 34.62C62.18 23.28 53.73 17.48 42.03 17.48C30.33 17.48 21.88 23.28 21.88 34.62C21.88 45.96 30.33 51.76 42.03 51.76C53.73 51.76 62.19 45.85 62.19 34.62H62.18Z" transform="translate(391 18.99)" fill="#F6535F"/>
<path d="M127.6 28.71V66.45H104.91V29.98C104.91 21.98 100.74 16.98 92.29 16.98C84.99 16.98 79.29 20.91 75.15 28.44V54.49L75.27 66.42H52.45V29.98C52.45 21.98 48.28 16.98 39.83 16.98C32.53 16.98 26.97 20.8 22.83 28.21V66.45H-6.10352e-06V2.31H22.81V12.74C28.02 4.51999 36.81 3.05176e-06 47.81 3.05176e-06C61.24 3.05176e-06 69.58 6.48001 73.17 16.33C77.46 6.84001 86.95 3.05176e-06 100.26 3.05176e-06C118.8 3.05176e-06 127.6 12.27 127.6 28.71Z" transform="translate(487.4 19.22)" fill="#F6535F"/>
</svg>
