<svg xmlns="http://www.w3.org/2000/svg" viewBox="0 0 615 88.34" fill='white'><title>blossom_logo</title><path d="M96.26,261.94c0,21.19-13.9,34.51-34,34.51-11.69,0-20.72-4.63-26.4-11.81V294H13V208.33H35.81v30.92c5.68-7.17,14.71-11.7,26.4-11.7C82.36,227.55,96.26,240.75,96.26,261.94Zm-21.65,0c0-10.65-6.72-16.9-18.76-16.9-7.76,0-14.82,2.55-19.92,9.15V269.7c5.1,6.6,12.16,9.15,19.92,9.15C67.89,278.84,74.6,272.7,74.6,261.94Z" transform="translate(-13 -208.33)"/><path d="M108.93,294V208.33h22.92V294Z" transform="translate(-13 -208.33)"/><path d="M144.38,261.94c0-21.53,16.21-34.62,42-34.62s41.92,13.09,41.92,34.62-16.21,34.73-41.92,34.73S144.38,283.36,144.38,261.94Zm62.18,0c0-11.34-8.45-17.14-20.15-17.14s-20.15,5.8-20.15,17.14,8.45,17.14,20.15,17.14S206.56,273.17,206.56,261.94Z" transform="translate(-13 -208.33)"/><path d="M312.91,273.86c0,12.62-12,22.81-37.05,22.81-17.14,0-31.5-5.2-40.52-11.92l10-12.4c6.95,5.1,17.72,8.81,31.26,8.81,9,0,15.05-1.4,15.05-5.21s-5.44-5.09-17.37-5.79c-18.53-1.27-36.36-6.36-36.36-21,0-13.09,13.32-22,37.17-22,13.9,0,26.64,3.71,35.09,8.8l-9.73,13c-6.49-3.94-15.17-6.37-25.94-6.37-7.07,0-15.29,1-15.29,5s6.84,4.52,17.72,5.1C297.28,253.83,312.91,259.74,312.91,273.86Z" transform="translate(-13 -208.33)"/><path d="M396.44,273.86c0,12.62-12,22.81-37.05,22.81-17.14,0-31.5-5.2-40.53-11.92l10-12.4c6.95,5.1,17.72,8.81,31.26,8.81,9,0,15.05-1.4,15.05-5.21s-5.44-5.09-17.37-5.79c-18.53-1.27-36.36-6.36-36.36-21,0-13.09,13.32-22,37.17-22,13.9,0,26.64,3.71,35.09,8.8l-9.73,13c-6.49-3.94-15.17-6.37-25.94-6.37-7.07,0-15.29,1-15.29,5s6.84,4.52,17.72,5.1C380.81,253.83,396.44,259.74,396.44,273.86Z" transform="translate(-13 -208.33)"/><path d="M404,261.94c0-21.53,16.21-34.62,42-34.62S488,240.4,488,261.94,471.75,296.67,446,296.67,404,283.36,404,261.94Zm62.18,0c0-11.34-8.45-17.14-20.15-17.14s-20.15,5.8-20.15,17.14,8.45,17.14,20.15,17.14S466.19,273.17,466.19,261.94Z" transform="translate(-13 -208.33)"/><path d="M628,256.26V294H605.31V257.53c0-8-4.17-13-12.62-13-7.3,0-13,3.93-17.14,11.46v26.05l.12,11.93H552.85V257.53c0-8-4.17-13-12.62-13-7.3,0-12.86,3.82-17,11.23V294H500.4V229.86h22.81v10.43c5.21-8.22,14-12.74,25-12.74,13.43,0,21.77,6.48,25.36,16.33,4.29-9.49,13.78-16.33,27.09-16.33C619.2,227.55,628,239.82,628,256.26Z" transform="translate(-13 -208.33)"/></svg>
